<?xml version="1.0" standalone="no"?>
<!DOCTYPE svg PUBLIC "-//W3C//DTD SVG 20010904//EN"
 "http://www.w3.org/TR/2001/REC-SVG-20010904/DTD/svg10.dtd">
<svg version="1.0" xmlns="http://www.w3.org/2000/svg"
 width="1644.000000pt" height="1233.000000pt" viewBox="0 0 1644.000000 1233.000000"
 preserveAspectRatio="xMidYMid meet">

<g transform="translate(0.000000,1233.000000) scale(0.100000,-0.100000)"
fill="#000000" stroke="none">
<path d="M3490 10549 c-235 -61 -432 -225 -536 -444 -81 -172 -74 89 -74
-2927 0 -2653 0 -2693 20 -2725 37 -62 117 -80 189 -43 78 39 71 -225 71 2742
0 2583 1 2657 19 2730 29 113 59 166 136 244 73 75 131 110 230 141 58 17 225
18 4735 18 4510 0 4677 -1 4735 -18 99 -31 157 -66 230 -141 77 -78 107 -131
136 -244 18 -73 19 -147 19 -2730 0 -2953 -6 -2698 69 -2740 69 -39 154 -21
191 40 20 33 20 43 20 2726 0 3016 7 2755 -74 2927 -104 221 -303 384 -540
445 -79 20 -99 20 -4790 19 -4644 0 -4712 0 -4786 -20z"/>
<path d="M5809 9157 c-77 -51 -87 -147 -24 -216 l33 -36 252 -5 252 -5 377
-1150 c207 -632 383 -1160 389 -1172 7 -12 27 -32 44 -45 l33 -23 1170 -3
c928 -2 1179 0 1214 11 29 8 53 24 72 47 21 27 95 244 309 898 155 475 284
878 286 895 6 41 -22 95 -66 125 l-33 22 -1441 0 c-1412 0 -1442 0 -1473 -20
-85 -51 -85 -189 0 -240 31 -20 60 -20 1350 -20 724 0 1317 -3 1317 -7 0 -3
-84 -263 -186 -577 -102 -314 -206 -633 -230 -708 l-45 -138 -1050 0 c-754 0
-1049 3 -1049 11 0 20 -742 2274 -761 2311 -34 67 -41 68 -392 68 -310 0 -315
0 -348 -23z"/>
<path d="M7204 5959 c-168 -28 -326 -165 -385 -334 -73 -208 7 -447 192 -572
87 -58 145 -77 260 -81 92 -4 114 -1 176 20 214 75 343 252 343 473 0 143 -61
282 -166 373 -61 54 -176 109 -254 121 -73 12 -94 12 -166 0z m150 -290 c49
-13 122 -80 136 -125 15 -44 15 -120 0 -159 -16 -42 -77 -103 -118 -116 -120
-40 -239 12 -277 120 -28 82 -13 158 44 222 55 61 131 81 215 58z"/>
<path d="M9301 5959 c-93 -16 -198 -74 -272 -149 -72 -73 -110 -142 -134 -242
-19 -81 -19 -135 1 -212 47 -180 168 -309 343 -366 95 -30 248 -26 331 10 263
114 380 387 280 653 -47 123 -170 241 -301 286 -67 24 -177 33 -248 20z m152
-290 c80 -22 147 -115 147 -205 0 -81 -60 -173 -128 -195 -48 -16 -131 -14
-173 4 -71 30 -129 116 -129 192 0 49 27 110 66 149 59 58 135 78 217 55z"/>
<path d="M2035 4020 c-31 -12 -64 -53 -75 -91 -25 -87 -6 -292 42 -434 145
-439 652 -994 1038 -1136 l65 -24 5175 0 5175 0 65 24 c225 83 507 314 724
592 253 324 366 588 366 855 0 113 -22 173 -74 205 -30 18 -93 19 -2542 19
l-2511 0 -34 -23 c-25 -17 -55 -61 -114 -170 l-80 -147 -975 0 -975 0 -63 118
c-87 164 -98 180 -134 202 -33 20 -55 20 -2543 19 -1380 0 -2519 -4 -2530 -9z
m4997 -421 c60 -109 91 -155 114 -170 31 -19 59 -19 1135 -19 1053 0 1105 1
1134 18 21 13 54 63 113 170 l83 152 2340 0 c1569 0 2339 -3 2339 -10 0 -38
-46 -203 -80 -286 -75 -183 -175 -329 -345 -500 -159 -160 -293 -261 -413
-310 l-57 -24 -5115 0 -5115 0 -57 24 c-124 51 -300 186 -443 340 -158 169
-245 299 -316 471 -35 85 -78 240 -79 283 0 9 474 12 2339 12 l2340 0 83 -151z"/>
</g>
</svg>
